PathFileType	4	(X/Y/Z)	/Users/itak/Documents/Research/Walk-IL/dataset/trc/00573_00009.trc
DataRate	CameraRate	NumFrames	NumMarkers	Units	OrigDataRate	OrigDataStartFrame	OrigNumFrames
100.000000	100.000000	4	53	mm	100.000000	0	569
Frame#	Time	RPSI			LPSI			L3			STRN			T10			C7			CLAV			RBAK			LBAK			LSHO			LUPA			LAEL			LAOL			LWTS			LWPS			LFRA			LIFD			LHPS			LHTS			RSHO			RUPA			RAEL			RAOL			RWTS			RWPS			RFRA			RIFD			RHTS			RHPS			RBHD			LFHD			RFHD			LBHD			LHIP			RHIP			RASI			LASI			LKNE			LTHI			LANK			LTIP			LTOE			LMT1			LMT5			LHEE			RKNE			RTHI			RANK			RTIP			RTOE			RMT1			RMT5			RHEE			
		X1	Y1	Z1	X2	Y2	Z2	X3	Y3	Z3	X4	Y4	Z4	X5	Y5	Z5	X6	Y6	Z6	X7	Y7	Z7	X8	Y8	Z8	X9	Y9	Z9	X10	Y10	Z10	X11	Y11	Z11	X12	Y12	Z12	X13	Y13	Z13	X14	Y14	Z14	X15	Y15	Z15	X16	Y16	Z16	X17	Y17	Z17	X18	Y18	Z18	X19	Y19	Z19	X20	Y20	Z20	X21	Y21	Z21	X22	Y22	Z22	X23	Y23	Z23	X24	Y24	Z24	X25	Y25	Z25	X26	Y26	Z26	X27	Y27	Z27	X28	Y28	Z28	X29	Y29	Z29	X30	Y30	Z30	X31	Y31	Z31	X32	Y32	Z32	X33	Y33	Z33	X34	Y34	Z34	X35	Y35	Z35	X36	Y36	Z36	X37	Y37	Z37	X38	Y38	Z38	X39	Y39	Z39	X40	Y40	Z40	X41	Y41	Z41	X42	Y42	Z42	X43	Y43	Z43	X44	Y44	Z44	X45	Y45	Z45	X46	Y46	Z46	X47	Y47	Z47	X48	Y48	Z48	X49	Y49	Z49	X50	Y50	Z50	X51	Y51	Z51	X52	Y52	Z52	X53	Y53	Z53	

1	0	-1252.462890625	1022.613220214844	-156.5912017822266	-1236.819458007812	1024.006469726562	-290.0025939941406	-1236.18505859375	1105.525268554688	-227.2518310546875	-1003.7294921875	1300.038696289062	-216.8573150634766	-1250.934448242188	1230.855590820312	-233.1996612548828	-1211.810791015625	1506.467041015625	-213.3177185058594	-1031.935668945312	1408.848022460938	-217.420166015625	-1278.830932617188	1376.27783203125	-132.0447845458984	-1240.804443359375	1452.934204101562	-307.1859130859375	-1142.210083007812	1479.814331054688	-385.7677001953125	-1137.6611328125	1351.461669921875	-461.6546020507812	-1075.178100585938	1137.225708007812	-471.6508483886719	-1167.881469726562	1112.145629882812	-439.5137634277344	-941.4830932617188	932.7852783203125	-376.7396545410156	-959.98388671875	893.5286865234375	-452.2098388671875	-1031.775268554688	1059.540771484375	-464.3027954101562	-901.8688354492188	771.2393798828125	-356.8706665039062	-938.7738037109375	839.2880249023438	-434.4171752929688	-899.8846435546875	864.3909912109375	-384.3403625488281	-1158.509887695312	1469.930297851562	-56.74765777587891	-1176.147705078125	1404.296142578125	10.91877365112305	-1162.031494140625	1113.694213867188	52.72908782958984	-1215.820678710938	1094.3154296875	25.82926177978516	-1013.277587890625	904.9118041992188	-1.598842620849609	-1055.568725585938	878.5237426757812	66.23455047607422	-1147.292724609375	1058.683227539062	56.90972137451172	-978.4082641601562	744.3475341796875	-16.29651641845703	-977.2696533203125	815.175048828125	9.406905174255371	-1024.351440429688	810.5858154296875	55.13102340698242	-1163.158935546875	1682.271484375	-152.0877685546875	-994.59521484375	1726.109252929688	-265.5263977050781	-1031.244873046875	1722.6396484375	-125.7831954956055	-1113.800415039062	1686.161010742188	-310.3395690917969	-1105.736328125	936.0596923828125	-410.281982421875	-1146.479125976562	943.3389892578125	-23.46113586425781	-1051.082885742188	970.3356323242188	-73.57777404785156	-1028.561767578125	957.0174560546875	-349.1788635253906	-1112.899780273438	489.5513305664062	-335.8234252929688	-1097.968139648438	653.1781005859375	-377.523681640625	-1188.1845703125	25.01925659179688	-312.0838928222656	-1173.510864257812	247.1824493408203	-334.6627197265625	-977.8922119140625	38.09635925292969	-251.2633361816406	-1050.667846679688	43.08166122436523	-216.6266326904297	-1065.500122070312	30.44482231140137	-325.564697265625	-1258.153442382812	29.78857612609863	-257.0513916015625	-1136.37353515625	498.9565734863281	-55.45956802368164	-1115.982666015625	787.9951171875	-19.62787246704102	-1232.625854492188	39.456787109375	-60.84015274047852	-1143.878051757812	357.1482543945312	-63.15679550170898	-1010.861328125	38.21659088134766	-89.61402130126953	-1074.229736328125	34.60974884033203	-133.6443939208984	-1101.546020507812	39.50563049316406	-34.04091262817383	-1285.066284179688	27.33086395263672	-114.8938217163086	
2	0.01	-1252.448486328125	1022.626708984375	-156.5759124755859	-1236.804443359375	1024.0185546875	-289.9949035644531	-1236.1435546875	1105.52880859375	-227.2363128662109	-1003.743591308594	1299.99951171875	-216.8124847412109	-1250.8828125	1230.855102539062	-233.1725921630859	-1211.8271484375	1506.44921875	-213.2424926757812	-1031.984741210938	1408.811157226562	-217.3697967529297	-1278.862548828125	1376.278198242188	-132.0087890625	-1240.818481445312	1452.932250976562	-307.1166687011719	-1142.2099609375	1479.808471679688	-385.6860961914062	-1137.759033203125	1351.477416992188	-461.6009826660156	-1075.377197265625	1137.205078125	-471.5677490234375	-1168.206176757812	1112.112182617188	-439.5841369628906	-941.7177734375	933.0966186523438	-375.998779296875	-960.0780029296875	893.6073608398438	-451.369384765625	-1031.948608398438	1059.577758789062	-463.9620056152344	-901.6637573242188	771.8527221679688	-355.8366394042969	-938.754638671875	839.469482421875	-433.4828491210938	-900.212890625	864.716552734375	-383.3534240722656	-1158.539306640625	1469.885375976562	-56.67690277099609	-1176.19921875	1404.213745117188	10.95513725280762	-1162.280151367188	1113.599853515625	52.74802017211914	-1216.062744140625	1094.281005859375	25.85150337219238	-1013.685607910156	904.61376953125	-1.698294878005981	-1055.964477539062	878.3155517578125	66.06344604492188	-1147.50634765625	1058.587768554688	56.80976867675781	-983.8969116210938	740.8935546875	-13.95486259460449	-977.8382568359375	814.8676147460938	9.246479988098145	-1027.431762695312	809.037841796875	56.47571182250977	-1163.184326171875	1682.324340820312	-151.9862976074219	-994.5092163085938	1726.069580078125	-265.489013671875	-1031.209106445312	1722.618286132812	-125.696662902832	-1113.815063476562	1686.168579101562	-310.255126953125	-1105.6005859375	935.9752197265625	-410.183349609375	-1146.504638671875	943.3312377929688	-23.43952178955078	-1051.045532226562	970.3493041992188	-73.54491424560547	-1028.576171875	956.9923706054688	-349.1578063964844	-1112.920288085938	489.5869140625	-335.783447265625	-1097.951782226562	653.1760864257812	-377.5124816894531	-1188.179321289062	25.01066207885742	-312.0858154296875	-1173.505737304688	247.1768188476562	-334.662109375	-977.8910522460938	38.09598541259766	-251.2648162841797	-1050.6552734375	43.07867050170898	-216.6501617431641	-1065.52490234375	30.4524097442627	-325.5995178222656	-1258.156494140625	29.79414176940918	-257.043212890625	-1136.414916992188	498.9562377929688	-55.44792938232422	-1115.9716796875	787.9638671875	-19.68630599975586	-1232.621215820312	39.45592498779297	-60.83576202392578	-1143.906616210938	357.1510009765625	-63.14441680908203	-1010.860046386719	38.21545791625977	-89.60227966308594	-1074.2275390625	34.60848999023438	-133.6399536132812	-1101.552368164062	39.50352096557617	-34.03346633911133	-1285.065673828125	27.33149719238281	-114.8944931030273	
3	0.02	-1252.429321289062	1022.6435546875	-156.5563354492188	-1236.783203125	1024.034057617188	-289.980712890625	-1236.090576171875	1105.531372070312	-227.2120208740234	-1003.758239746094	1299.954711914062	-216.7551574707031	-1250.8154296875	1230.850463867188	-233.1358947753906	-1211.8408203125	1506.428344726562	-213.1502532958984	-1032.043579101562	1408.767456054688	-217.3070831298828	-1278.900756835938	1376.276977539062	-131.9676971435547	-1240.83349609375	1452.9287109375	-307.0239868164062	-1142.206787109375	1479.805297851562	-385.5819702148438	-1137.879272460938	1351.498168945312	-461.5371704101562	-1075.672607421875	1137.171997070312	-471.4692077636719	-1168.640869140625	1112.078857421875	-439.65869140625	-942.1275024414062	933.38818359375	-375.1387023925781	-960.294921875	893.6494140625	-450.4024963378906	-1032.220336914062	1059.596801757812	-463.5659484863281	-901.7266235351562	772.398193359375	-354.56591796875	-938.8599853515625	839.625	-432.4052734375	-900.6082153320312	865.0809936523438	-382.2329711914062	-1158.579467773438	1469.826538085938	-56.58511734008789	-1176.262573242188	1404.108642578125	10.99487113952637	-1162.594848632812	1113.479125976562	52.75164794921875	-1216.387329101562	1094.23876953125	25.87495040893555	-1014.242553710938	904.236328125	-1.807949662208557	-1056.499267578125	878.0479125976562	65.87234497070312	-1147.805297851562	1058.460327148438	56.6989860534668	-989.2312622070312	737.5752563476562	-11.82638931274414	-978.6040649414062	814.4674072265625	9.077375411987305	-1030.467041015625	807.5064697265625	57.6608772277832	-1163.20556640625	1682.387939453125	-151.8590393066406	-994.4072265625	1726.02099609375	-265.4377746582031	-1031.161499023438	1722.592163085938	-125.5931015014648	-1113.82666015625	1686.17578125	-310.1461181640625	-1105.444091796875	935.8760986328125	-410.0672912597656	-1146.533813476562	943.3212890625	-23.40826797485352	-1050.974975585938	970.3840942382812	-73.50358581542969	-1028.598999023438	956.9627685546875	-349.1269226074219	-1112.93212890625	489.6263122558594	-335.7330322265625	-1097.927368164062	653.1709594726562	-377.4937438964844	-1188.174072265625	25.00250434875488	-312.0882873535156	-1173.49853515625	247.1703186035156	-334.6596069335938	-977.8900756835938	38.09514617919922	-251.2659149169922	-1050.644653320312	43.07648086547852	-216.6697082519531	-1065.534790039062	30.45564079284668	-325.618408203125	-1258.158935546875	29.80004501342773	-257.0368041992188	-1136.46630859375	498.9569702148438	-55.430419921875	-1115.987426757812	787.9347534179688	-19.7065486907959	-1232.6171875	39.45511627197266	-60.83170700073242	-1143.94384765625	357.1551208496094	-63.12527465820312	-1010.860046386719	38.21636581420898	-89.59293365478516	-1074.226684570312	34.60746383666992	-133.6348419189453	-1101.559204101562	39.50117111206055	-34.02532196044922	-1285.065063476562	27.33213233947754	-114.8951416015625	
4	0.03	-1252.40576171875	1022.662902832031	-156.5330352783203	-1236.755615234375	1024.052490234375	-289.9581604003906	-1236.028198242188	1105.531982421875	-227.1777496337891	-1003.771545410156	1299.907592773438	-216.6866760253906	-1250.734130859375	1230.840576171875	-233.0899963378906	-1211.848266601562	1506.40625	-213.0452423095703	-1032.1083984375	1408.72021484375	-217.2347564697266	-1278.943481445312	1376.27294921875	-131.9249877929688	-1240.847290039062	1452.923706054688	-306.9088439941406	-1142.199096679688	1479.806396484375	-385.4593505859375	-1138.016235351562	1351.522583007812	-461.4666442871094	-1076.071899414062	1137.121459960938	-471.3607788085938	-1169.181030273438	1112.0537109375	-439.730224609375	-942.7387084960938	933.6041259765625	-374.2312316894531	-960.6781005859375	893.6243286132812	-449.3941650390625	-1032.605346679688	1059.582275390625	-463.1473388671875	-902.1937255859375	772.7598266601562	-353.1434020996094	-939.1524658203125	839.709228515625	-431.2776794433594	-901.0676879882812	865.4401245117188	-381.0896301269531	-1158.630004882812	1469.755126953125	-56.47469711303711	-1176.335083007812	1403.984008789062	11.03463172912598	-1162.96435546875	1113.335815429688	52.73082733154297	-1216.787353515625	1094.190795898438	25.89204216003418	-1014.941162109375	903.7975463867188	-1.920124888420105	-1057.170654296875	877.7282104492188	65.68264770507812	-1148.198974609375	1058.301025390625	56.59622192382812	-993.8670043945312	734.7437133789062	-10.16328811645508	-979.557373046875	813.984130859375	8.929105758666992	-1033.157348632812	806.1467895507812	58.53358840942383	-1163.216186523438	1682.4580078125	-151.7104644775391	-994.29638671875	1725.966064453125	-265.3724975585938	-1031.102172851562	1722.562133789062	-125.4792022705078	-1113.83203125	1686.181518554688	-310.0151672363281	-1105.2578125	935.7564086914062	-409.9276733398438	-1146.564331054688	943.3099365234375	-23.3670711517334	-1050.865844726562	970.4450073242188	-73.45472717285156	-1028.630004882812	956.9329833984375	-349.0860290527344	-1112.932373046875	489.6653442382812	-335.6740112304688	-1097.894165039062	653.1622924804688	-377.46630859375	-1188.170043945312	24.99622535705566	-312.0912475585938	-1173.48974609375	247.1633911132812	-334.6545715332031	-977.8896484375	38.09371185302734	-251.2661437988281	-1050.640258789062	43.0760383605957	-216.6781158447266	-1065.526733398438	30.45358848571777	-325.6169738769531	-1258.159545898438	29.8051929473877	-257.0348205566406	-1136.525268554688	498.9590454101562	-55.40587615966797	-1116.036743164062	787.912353515625	-19.67200660705566	-1232.614379882812	39.45436859130859	-60.82844543457031	-1143.987670898438	357.1605224609375	-63.09866714477539	-1010.861694335938	38.21941375732422	-89.5870361328125	-1074.227783203125	34.60687255859375	-133.6295623779297	-1101.565673828125	39.49819946289062	-34.01727676391602	-1285.064697265625	27.33242988586426	-114.8956298828125	
